<svg width="100" height="100" viewBox="0 0 800 800" xmlns="http://www.w3.org/2000/svg"><g transform="translate(400,400)"><path d="M-150-100L-50-150L0-100L-100-50Z" fill="#FF8C42"/><path d="M-50 100L50 150L100 100L0 50Z" fill="#FF8C42"/><path d="M-150-50L-100 0L-200 0Z" fill="#E74C3C"/><path d="M100 0L150 50L50 50Z" fill="#E74C3C"/><path d="M50-150L150-100L100-50L0-100Z" fill="#17A2B8"/><path d="M0 100L100 150L50 200L-50 150Z" fill="#17A2B8"/><path d="M-100 50L0 100L-50 150L-150 100Z" fill="#3498DB"/><path d="M-50-50L50-50L50 50L-50 50Z" fill="#BDC3C7" opacity=".7"/><path d="M-100-100L-50-50L-100 0L-150-50Z" fill="#95A5A6"/><path d="M50-50L100-100L150-50L100 0Z" fill="#95A5A6"/></g><text x="400" y="550" font-family="Arial,sans-serif" font-size="120" font-weight="bold" text-anchor="middle" fill="#2C3E50">teppek</text></svg>